<svg xmlns="http://www.w3.org/2000/svg" width="124.588" height="124.588" viewBox="0 0 282 282">
  <defs>
    <style>
      .cls-1 {
        fill: #fff;
      }

      .cls-1, .cls-2, .cls-3, .cls-4, .cls-5 {
        fill-rule: evenodd;
      }

      .cls-3 {
        fill: #030303;
      }

      .cls-4 {
        fill: #fdfdfd;
      }

      .cls-5 {
        fill: #222e82;
      }
    </style>
  </defs>
  <path id="top_semicirc_1" data-name="top_semicirc 1" class="cls-1" d="M224.937,156c0.922-5.008,2.074-10.575,2.074-15.848,0-47.028-38.28-85.152-85.5-85.152s-85.5,38.124-85.5,85.152A90.478,90.478,0,0,0,57.938,156h167Z"/>
  <path id="MEL_1" data-name="MEL 1" class="cls-2" d="M60.091,156L67,99H83l-1,4,8.058-4H108v3l8.03-3h11.986l5,7-5.993,50H111.035L118,105h-2l-8.961,4-5.993,47H85l7-51H90l-8,4-6.187,47H60.091Zm68.924,0,7.992-57h39.956l4.994,7-1,9H165.975l1-10H150.991l-1,15h9.989l-1,5h-9.989l-3,22H160.98l1.02-4,14.483,0.315L175.011,156h-46Zm49.946,0,6.992-57h15.982l-5.993,51h29.967v6H178.961Z"/>
  <path id="EDUARDO_1" data-name="EDUARDO 1" class="cls-2" d="M673,150.589l-8,7.078H630l-6-8.089,6-45.5L637,97h35l7,7.078Zm-26-47.522L640,151.6h16l6-48.533H647Zm-35,54.6H568L576,97h37l10,11.122-5,42.467Zm-20-54.6-6,47.522h16l6-47.522H592Zm-37,16.177,11,6.067-4,32.356H545l4-32.356h-7l-9,4.045-3,28.311H513l8.285-60.657L564,97l5,6.067-1,10.111Zm-18.048-16.277-2.938,19.86,16.647-7.944,1.958-11.916H536.952ZM350,104.078l-1,10.111H332l2-11.122H318l-2,16.177h11l-1,6.067H315L312,151.6h15l2-11.122h16L344,151.6l-7,6.067-43-.068L303,97h41Zm-3,53.589L356,97h36l11,12.133-6,41.456-8,7.078H347Zm24-54.6-6,47.522h16l6-47.522H371ZM474.282,97.01h33.294L514,104.078l-7,53.589H490l4-33.367H479l-4,33.367H458l7-53.589ZM495,119.244l2-16.177H482l-2,16.177h15Zm-59,28.312L443,97h17l-8,60.667H435v-4.045l-7,4.045H409l-6-7.078L411,97h16l-7,54.6h7Z"/>
  <path id="LOBATO_1" data-name="LOBATO 1" class="cls-2" d="M304,228.367h35l-1.34,6.6-54.66.436,10.521-72.054L313,163.006Zm39.545-1.247L351,171.05l10-8.044h43l7,8.044-8,56.311-9,8.044-44.57-.436ZM383,228.367l8-58.323H372l-9,58.323h20Zm163-56.311-9,63.349H517l6-39.216H503l-5,39.216H478l9-63.349,8-9.05h44Zm-39-2.012-3,19.106h20l3-19.106H507Zm-45,65.361H410l10-72.4h52l7,9.05-2,10.055-16,7.039,14,8.044-4,30.167Zm-31-7.038h20l4-32.178h-8l-12,5.028Zm8-58.323-3,23.128,21-10.055,2-13.073H439ZM609,162l-1,8.044H588l-8,65.361H559l9-65.361H549L550,162h59Zm1,73.405-6-8.044,7-55.3L621,162h43l7,10.056-8,55.3-9,8.044H610Zm21-65.361-8,58.323h20l8-58.323H631Z"/>
  <path id="bot_semicirc_1" data-name="bot_semicirc 1" class="cls-3" d="M223.278,163.01a84.718,84.718,0,0,1-163.556.143C112.287,163.153-12.984,163.01,223.278,163.01Z"/>
  <path id="e_hijos_1" data-name="e hijos 1" class="cls-2" d="M535,255l3,2v4l4-2,2,3-6,3H520l-5-3,2-3,5,3h9v-5H520l-3-2a26.006,26.006,0,0,1,0-3l-3-1-2,11-3,3H493l-2-3-15,8h-3v-3h3l4-3v-1l-4,2h-7v-2l-3,2h-8l2-15h-3l-4,3-2,12h-8l4-28h8l-1,11,1-1h10l2,3-1,11,3-2,2-12h8l-2,14,3-2,1-12h8l-1,14,3-2,1-9,4-3h17l5,2,3-2h14l5,3-2,3-5-3h-8v5h10Zm-36-5-1,12h7l1-12h-7Zm-13-4a2,2,0,1,1,2-2A2,2,0,0,1,486,246Zm-10,0a2,2,0,1,1,2-2A2,2,0,0,1,476,246Zm-77,19-3-3,2-12,3-3h15.714L420,250v7l-4,3H404v2h14l4-3,2,2-5,4H399Zm12.536-8,1.035-7h-7.25l-1.035,7h7.25Z"/>
  <path id="e_hijos_1_copia" data-name="e hijos 1 copia" class="cls-4" d="M190.885,183.23l2.372,1.581v3.162l3.162-1.581L198,188.763l-4.743,2.372h-14.23l-3.953-2.372,1.581-2.371,3.953,2.371h7.115v-3.952h-8.7l-2.372-1.581a20.773,20.773,0,0,1,0-2.372l-2.371-.79-1.581,8.695-2.372,2.372H157.682l-1.581-2.372-11.858,6.325h-2.371v-2.372h2.371l3.162-2.371v-0.791l-3.162,1.581h-5.534v-1.581l-2.371,1.581h-6.325l1.582-11.858h-2.372l-3.162,2.372-1.581,9.486h-6.325L121.318,169h6.324l-0.791,8.7,0.791-.791h7.905l1.581,2.372-0.79,8.7,2.371-1.581,1.582-9.487h6.324l-1.581,11.068,2.371-1.581,0.791-9.487h6.324l-0.79,11.068,2.371-1.581,0.791-7.115,3.162-2.372h13.439l3.953,1.581,2.372-1.581h11.067l3.953,2.372-1.581,2.372-3.953-2.372H182.98v3.953h7.905Zm-28.459-3.953-0.791,9.486h5.534l0.79-9.486h-5.533Zm-10.277-3.162a1.581,1.581,0,1,1,1.581-1.581A1.581,1.581,0,0,1,152.149,176.115Zm-7.906,0a1.581,1.581,0,1,1,1.581-1.581A1.581,1.581,0,0,1,144.243,176.115Zm-60.871,15.02L81,188.763l1.581-9.486,2.372-2.372H97.376l2.6,2.372v5.534l-3.162,2.371H87.324v1.581H98.392l3.162-2.371,1.581,1.581-3.953,3.162H83.372Zm9.91-6.324,0.819-5.534H88.369l-0.819,5.534h5.731Z"/>
  <path id="Metalurgica_1" data-name="Metalurgica 1" class="cls-3" d="M556,90V87l-4,3h-9l-2-3-6,3H516.606L515,87l-5.447,3H502V87l-15,8h-8V92h8l3-2,1-2-4,2s-9.2.266-9,0-2-3-2-3l1-12,4-4h17l2,4-1,11,4-2,1.514-13h7.054L510,86l4-2,1-9,4.629-4H535l3,3v5h-8l1-5h-8.348L521,87h14l6-3V75l4-4h17l3,3-1,12,5-2,1,2-7.043,4H556ZM484.362,74l-1.008,13h4.031l4.03-2,1.008-11h-8.061ZM549,74l-1,13h4l4-3,1-10h-8Zm-40.455-4a1.9,1.9,0,0,1-2.015-2,2.015,2.015,0,0,1,4.03,0A1.858,1.858,0,0,1,508.545,70Zm-41.313,4H463l-4,2-0.837,14H450V88l-3.928,2h-7.054V88l-4.03,2h-9.069L424,88l-5,2h-7l-0.188-2L407,90h-6V88l-3.3,2H388s-2.013-2-2-2l-3.409,2H372l-2-2-6.554,2H345l-2-2-6,2h-6.806L332,74h-2l-4,2-1,14h-7.906L319,74h-2l-4,2-1,14h-8l1-15,4-3h4v1l4-2h10v2s2.977-2,3.194-2H338l2,4-2,11,4-1,1-11,4-3h17l3,3-1,8-4,3H349v2h15l5-2,2-19h9l-1,5h5v3h-6l-1,13h4l4-2,1-10,4-4h17l3,3-1,12,2.812-1,3.023-24H423s-3,25-3,25l4-1,2-14h6.972l-2.015,16h4.031l4.03-2,2.015-14H449l-2,16,4-2,1-10,3-4h5v2l4-2h8.27L475,75v4h-8ZM359,82l1-8h-9l-1,8h9Zm35-8-1,13h5l3-2,2-11h-9Zm41-3,4-7h5l-5,7h-4Z"/>
  <path id="engranaje_1" data-name="engranaje 1" class="cls-5" d="M257.841,141.058q0,3.714-.231,7.37L282,158l-1,12-27.233,1.6a115,115,0,0,1-9.162,23.235L263.936,214l-7.025,10-25.178-9.731a116.9,116.9,0,0,1-17.519,17.325L223.794,257l-10.036,7-19.183-19.708a115.852,115.852,0,0,1-23.878,9.069L169.6,280l-12.042,2-9.922-25.1q-3.084.162-6.208,0.162a117.724,117.724,0,0,1-18.037-1.384l-13,24.326-12.042-3,1.024-27.743c-7.793-3.01-22.056-11.361-22.056-11.361L57.2,255l-10.036-8L59.42,223.388s-11.313-12.464-15.9-19.546L18.064,211l-6.021-12,21.2-15.017a114.871,114.871,0,0,1-7.01-26.068L0,155V142l25.137-6.289a115.457,115.457,0,0,1,3.922-25.069L7.025,96l5.018-12,25.089,4c3.921-7.659,9.2-14.408,14.665-20.966L37.132,45l9.032-9L67.658,51.319A116.586,116.586,0,0,1,89.5,37.208L85.3,12,97.345,7l14,21.969A107.175,107.175,0,0,1,136.484,25l7.025-25h12.043l4.014,27a110.758,110.758,0,0,1,25.089,7l17.06-21,10.036,5-7,25.7A106.785,106.785,0,0,1,224.8,60l24.086-12,7.024,10L239.333,78.275a115.375,115.375,0,0,1,11.408,22.8L277.986,99,281,112l-24.527,11.191A116.43,116.43,0,0,1,257.841,141.058ZM141.5,44C87.74,44,44.157,87.428,44.157,141S87.74,238,141.5,238s97.345-43.428,97.345-97S195.264,44,141.5,44Z"/>
</svg>
