<svg xmlns="http://www.w3.org/2000/svg" width="100" height="100" viewBox="0 0 100 100"
    stroke="#030303" stroke-width="2" stroke-linecap="square" stroke-linejoin="miter"
    fill="none"
    style="border : 1px solid black;"
>
    <g 
    transform="translate(-9 9)"
    >
        <g id="cinta-transportadora" transform="translate(0,60)"
        >
            <g>
                <rect
                    x="10" y="0"
                    width="98"
                    height="30"
                    rx="15"
                />
                <rect
                    x="15" y="5"
                    width="88"
                    height="20"
                    rx="10"
                />
            </g>

            <g id="rollos-de-cinta">
                <circle
                    cx="25" cy="15"
                    r="10"
                >
                </circle>
                <circle
                    cx="59" cy="15"
                    r="10"
                >
                </circle>
                <circle
                    cx="93" cy="15"
                    r="10"
                >
                </circle>
            </g>
        </g>
        <g transform="translate(3,-10)">
            <g id="envases" stroke-linecap="round" stroke-linejoin="round"
                transform="translate(12,19)">
                <line
                    x1="10" x2="10"
                    y1="30" y2="48"
                />
                <line
                    x1="25" x2="25"
                    y1="30" y2="48"
                />
                <line
                    x1="12" x2="23"
                    y1="50" y2="50"
                />
                <path
                    d=" M10,30 C10,20 13,20 15,15 
                M25,30 C25,20 22,20 20,15 
                M15,15 L15,13
                M20,15 L20,13 
                M14,13 L21,13 
                M14,11 L21,11
                M14,13 L14,11
                M21,13 L21,11 
                M12,50 A2,2 0 0 1 10,48
                M25,48 A2,2 0 0 1 23,50
                M10,30 L25,30
                M10,45 L25,45
                "
                />
            </g>
            <g id="envases" stroke-linecap="round" stroke-linejoin="round"
                transform="translate(30,19)">
                <line
                    x1="10" x2="10"
                    y1="30" y2="48"
                />
                <line
                    x1="25" x2="25"
                    y1="30" y2="48"
                />
                <line
                    x1="12" x2="23"
                    y1="50" y2="50"
                />
                <path
                    d=" M10,30 C10,20 13,20 15,15 
                M25,30 C25,20 22,20 20,15 
                M15,15 L15,13
                M20,15 L20,13 
                M14,13 L21,13 
                M14,11 L21,11
                M14,13 L14,11
                M21,13 L21,11 
                M12,50 A2,2 0 0 1 10,48
                M25,48 A2,2 0 0 1 23,50
                M10,30 L25,30
                M10,45 L25,45
                "
                />
            </g>
            <g id="envases" stroke-linecap="round" stroke-linejoin="round"
                transform="translate(48,19)">
                <line
                    x1="10" x2="10"
                    y1="30" y2="48"
                />
                <line
                    x1="25" x2="25"
                    y1="30" y2="48"
                />
                <line
                    x1="12" x2="23"
                    y1="50" y2="50"
                />
                <path
                    d=" M10,30 C10,20 13,20 15,15 
                M25,30 C25,20 22,20 20,15 
                M15,15 L15,13
                M20,15 L20,13 
                M14,13 L21,13 
                M14,11 L21,11
                M14,13 L14,11
                M21,13 L21,11 
                M12,50 A2,2 0 0 1 10,48
                M25,48 A2,2 0 0 1 23,50
                M10,30 L25,30
                M10,45 L25,45
                "
                />
            </g>
        </g>
    </g>

</svg>