<svg xmlns="http://www.w3.org/2000/svg" width="300" height="300" viewBox="0 0 300 300">
  <defs>
    <style>
      .cls-1 {
        fill: #202e87;
      }

      .cls-1, .cls-2, .cls-3, .cls-4 {
        fill-rule: evenodd;
      }

      .cls-2 {
        fill: #c7c8cc;
      }

      .cls-4 {
        fill: #fff;
      }
    </style>
  </defs>
  <path id="engranaje-definitivo_1" data-name="engranaje-definitivo 1" class="cls-1" d="M273.645,129.544l26.366,6.819v27.274l-26.366,6.819H273.26a124.089,124.089,0,0,1-6.351,23.421l0.4,0.23L286.732,213.2l-13.638,23.621-26.242-7.278-0.537-.31a125.736,125.736,0,0,1-17.121,17.027l0.344,0.6,7.278,26.242L213.2,286.732l-19.088-19.424s-0.247-.427-0.368-0.638a124.1,124.1,0,0,1-23.283,6.209v0.766l-6.819,26.366H136.363l-6.819-26.366v-0.766a124.125,124.125,0,0,1-23.284-6.208l-0.367.637L86.805,286.732,63.184,273.094l7.278-26.242,0.342-.593a125.863,125.863,0,0,1-17.115-17.033l-0.541.312-26.243,7.278L13.268,213.2l19.424-19.088,0.4-.23a124.2,124.2,0,0,1-6.347-23.421H26.355l-26.365-6.819V136.363l26.365-6.819h0.229A124.094,124.094,0,0,1,32.8,105.958l-0.112-.065L13.268,86.805,26.906,63.184l26.243,7.278,0.028,0.016A125.778,125.778,0,0,1,70.45,53.127l-0.026-.045-7.24-26.176L86.805,13.268l19,19.284,0.018,0.031a124.094,124.094,0,0,1,23.718-6.372V26.141L136.363-.011h27.274l6.815,25.9s0,0.214,0,.321a124.121,124.121,0,0,1,23.72,6.368l0.075-.129L213.2,13.268l23.621,13.637-7.182,26.076-0.081.14a125.732,125.732,0,0,1,17.265,17.36l0.034-.02,26.242-7.278,13.638,23.621-19.424,19.088-0.12.069a124.262,124.262,0,0,1,6.222,23.582h0.235ZM150,47.6A102.21,102.21,0,1,0,252.21,149.805,102.21,102.21,0,0,0,150,47.6Z"/>
  <path id="top_semicircle_1" data-name="top semicircle 1" class="cls-2" d="M240.129,170.985a92.531,92.531,0,1,0-180.259-.007C61.08,170.954,238.6,171,240.129,170.985Z"/>
  <path id="bot_semicircle_1" data-name="bot semicircle 1" class="cls-3" d="M240.01,178A94.375,94.375,0,0,1,60,178.021C60.955,178,239.014,177.994,240.01,178Z"/>
  <path id="e_hijos_1" data-name="e hijos 1" class="cls-4" d="M96.384,204.692h8.876c3.042-1.114,6.3-8.162,1.365-11.077H94.335s-5.5,1.182-4.1,12.462c0,0-.126,2.745,5.462,2.769,6,0.026,12.288,0,12.288,0l5.462-3.461-1.365-2.077-4.1,2.769H96.384v-1.385Zm32.087,4.154L131.2,186h6.827l-1.365,9s10.76-3.98,11.606,1.385a61.848,61.848,0,0,1-2.049,9.692l3.414-1.385L151,193.615h6.145L155.1,206.077l3.413-1.385,1.365-11.077h6.145l-2.048,12.462,2.73-1.385s-0.354-9.207,4.1-11.077c4.909-.024,15.019,0,15.019,0l3.413,2.77s1.316-2.747,2.731-2.77c1.386-.022,10.923,0,10.923,0l4.1,2.077-0.683,2.77-4.1-2.077h-7.51l-0.683,4.153H204.25a4.71,4.71,0,0,1,1.365,5.539L208.346,204l0.683,1.385-4.1,3.461H191.279l-4.1-3.461,1.366-2.077,3.413,2.769h7.51s1.257-2.659-.683-4.154H190.6l-4.779-4.846s-0.277,11.875-4.779,11.769c-5.044-.118-12.288,0-12.288,0a4.3,4.3,0,0,1-1.366-2.077L153.73,213l-0.683-2.077,4.1-2.077,0.682-1.384-3.413,1.384h-5.462v-1.384l-4.1,1.384h-5.462s4.309-12.012,2.731-12.461c-1.939-.553-4.09-0.111-6.144,2.077l-1.365,10.384H128.47Zm25.943-19.716a1.75,1.75,0,0,1,1.72,1.744,1.72,1.72,0,1,1-3.44,0A1.785,1.785,0,0,1,154.413,189.13Zm8.875,0.05a1.708,1.708,0,0,1,1.678,1.7,1.678,1.678,0,1,1-3.356,0A1.742,1.742,0,0,1,163.288,189.18Zm10.24,7.2h6.145l-1.366,9.692h-6.144Zm-76.462,5.538,0.683-5.538h5.461l-0.682,5.538H97.066Z"/>
  <path id="MEL_1" data-name="MEL 1" class="cls-3" d="M60,171l8.639-59H85.2l-0.72,3.512L92.4,112h20.159v3.512l7.2-3.512h13.679l5.76,7.024L131.994,171H114.716l7.919-52.679h-2.88l-8.639,3.512L103.916,171H87.358l7.919-53.381H92.4l-8.639,4.917L77.279,171H60Zm74.874,0,8.639-59h43.2l5.759,6.321-1.44,9.834H174.471l1.44-9.834H159.352l-2.16,15.453h11.519l-0.72,5.619H156.472l-3.6,22.476h16.559l0.72-3.512H186.71L185.27,171h-50.4Zm54,0,7.919-59h17.279l-5.76,49.869h31.677L238.546,171H188.87Z"/>
</svg>
