<svg xmlns="http://www.w3.org/2000/svg" width="500" height="500" viewBox="0 0 500 500">
  <defs>
    <style>
      .cls-1 {
        fill: #23338c;
      }

      .cls-1, .cls-2, .cls-3, .cls-4 {
        fill-rule: evenodd;
      }

      .cls-2 {
        fill: #0d0d0d;
      }

      .cls-3 {
        fill: #c7c8cc;
      }

      .cls-4 {
        fill: #f2f2f2;
      }
    </style>
  </defs>
  <path id="engranaje_1" data-name="engranaje 1" class="cls-1" d="M457.166,250.1q0,6.583-.41,13.067L500,280.142l-1.779,21.276-48.286,2.844a203.831,203.831,0,0,1-16.246,41.2l34.282,33.974-12.455,17.73-44.642-17.254a207.353,207.353,0,0,1-31.062,30.719L396.8,455.674,379,468.085l-34.012-34.944a205.4,205.4,0,0,1-42.337,16.081l-1.942,47.232L279.359,500l-17.592-44.51q-5.467.285-11.007,0.287a208.605,208.605,0,0,1-31.979-2.454l-23.052,43.131-21.352-5.319,1.815-49.189c-13.817-5.337-39.107-20.144-39.107-20.144l-35.662,30.326L83.63,437.943l21.725-41.865S85.3,373.979,77.17,361.421L32.028,374.113,21.352,352.837,58.946,326.21a203.67,203.67,0,0,1-12.429-46.219L0,274.823v-23.05l44.57-11.15a204.731,204.731,0,0,1,6.953-44.449L12.456,170.213l8.9-21.277,44.484,7.092c6.952-13.58,16.318-25.545,26-37.174l-26-39.067L81.851,63.83,119.961,90.99A206.706,206.706,0,0,1,158.7,65.971l-7.452-44.695L172.6,12.411l24.82,38.952c14.864-3.951,28.405-6.509,44.575-7.037L254.448,0H275.8l7.117,47.872A196.368,196.368,0,0,1,327.4,60.284L357.651,23.05l17.794,8.865L363.033,77.489c13.49,8.73,24.475,17.355,35.543,28.894l42.7-21.277,12.456,17.731L424.35,138.784a204.627,204.627,0,0,1,20.227,40.427l48.305-3.679,5.339,23.05-43.489,19.842A206.412,206.412,0,0,1,457.166,250.1ZM250.89,78.014c-95.324,0-172.6,77-172.6,171.986s77.274,171.986,172.6,171.986,172.6-77,172.6-171.986S346.213,78.014,250.89,78.014Z"/>
  <path id="Elipse_1_copia" data-name="Elipse 1 copia" class="cls-2" d="M403.015,289.966a157.551,157.551,0,0,1-305,.108Z"/>
  <path id="Elipse_2" data-name="Elipse 2" class="cls-3" d="M406,279c1.594-8.989,2-19.053,2-28.5a157.5,157.5,0,0,0-315,0c0,9.558.369,19.411,2,28.5H406Z"/>
  <path id="MEL" class="cls-2" d="M402.038,269.664L400.76,279h-81.1l14.467-102.587h26.943l-13.19,93.248h54.159ZM291.452,204.433l2.692-18.678H267.065l-3.971,28.017h18.053l-1.278,9.339H261.816l-6.662,46.553h27.079l2.693-18.678h27.079l-2.269,15.99L296.41,279H226.933L241.4,176.416h69.477l9.923,12.028-2.269,15.989H291.452ZM188.23,279l13.19-93.248H198l-15.765,7.5L170.177,279H143.234l13.19-93.248h-3.556l-15.629,7.5L125.181,279H98.1l14.467-102.587h27.08l-0.853,6.368,13.3-6.368h32.551l-0.853,6.368,13.3-6.368h21.062l9.923,12.028L215.31,279H188.23Z"/>
  <path id="e_hijos" data-name="e hijos" class="cls-4" d="M368.275,344.341l-10.8,5.04H332.814l-9.419-5.04,2.28-3.54,8.58,4.62h13.379l1.14-7.92h-18.6l-4.381-5.1,0.366-2.614-5.405-2.906-2.46,17.4-5.82,5.1H287.1l-3.347-3.9-26.713,12.477-1.32-3.54,9.18-4.26,0.576-4.073-7.055,3.293h-10.38l0.465-3.3-7.064,3.3h-10.38l3.359-23.7h-5.46l-6.839,3.18-2.881,20.52H207.357l6.12-43.5h11.879l-2.639,18.54,5.88-2.7h13.14l4.379,5.1-2.459,17.4,5.467-2.555,2.812-19.945h11.88l-3.18,22.5,5.463-2.574,2.817-19.926H280.8l-3.18,22.5,5.468-2.555,2.092-14.845,5.82-5.1h28.98l7.693,4.142,4.726-4.142h21.061l9.359,5.04-2.22,3.54-8.64-4.62h-13.38l-1.139,7.86h18.659l4.38,5.16-0.779,5.52,7.319-3.42Zm-71.04-18.66-2.82,19.74h11.82l2.82-19.74h-11.82Zm-23.82-7.92,0.54-3.96h3.96l-0.54,3.96h-3.96Zm-16.979,0,0.54-3.96h3.96l-0.54,3.96h-3.96ZM136.2,349.381l-4.38-5.1,2.46-17.46,5.82-5.1h25.38l4.38,5.1-1.38,9.54-5.76,5.1h-18.6l-0.6,3.96h21.24l9.96-4.62,1.26,3.54-10.8,5.04H136.2Zm20.28-11.88,1.68-11.82h-11.82l-1.68,11.82h11.82Z"/>
</svg>
